<svg width="16" height="14" viewBox="0 0 16 14" fill="none" xmlns="http://www.w3.org/2000/svg">
<path d="M14.9026 0H13.4829C13.1457 0 12.8617 0.248454 12.8262 0.603389L12.4891 3.97527H0.8472C0.580999 3.97527 0.350291 4.0995 0.172824 4.29471C0.0131033 4.50767 -0.0401368 4.77387 0.0308501 5.02233L1.92975 12.4582C2.01848 12.8309 2.35567 13.0971 2.7461 13.0971H11.7792C11.8324 13.0971 11.9034 13.0971 11.9567 13.0793C11.9921 13.0793 12.0099 13.0971 12.0454 13.0971C12.0631 13.0971 12.0809 13.0971 12.0986 13.0971C12.3471 13.0971 12.56 12.9019 12.5778 12.6534L12.6133 12.3517L13.4829 3.99302H13.4651L13.7668 0.976071H14.9026C15.1688 0.976071 15.3995 0.76311 15.3995 0.479162C15.3995 0.195214 15.1866 0 14.9026 0ZM1.00692 4.95134H12.3826L11.655 12.121H2.85258L1.00692 4.95134Z" fill="#4F4F4F"/>
</svg>
