<svg width="19" height="19" viewBox="0 0 19 19" fill="none" xmlns="http://www.w3.org/2000/svg">
<path d="M18.06 15.94L13.82 11.7C13.44 11.32 12.84 11.32 12.46 11.68L10.6 9.84C11.46 8.8 12 7.46 12 6C12 2.7 9.32 0 6 0C2.68 0 0 2.68 0 6C0 9.32 2.68 12 6 12C7.44 12 8.78 11.48 9.82 10.62L11.68 12.46L11.66 12.48C11.28 12.86 11.28 13.5 11.66 13.88L15.9 18.1C16.28 18.48 16.92 18.48 17.3 18.1L18.06 17.34C18.44 16.94 18.44 16.32 18.06 15.94ZM1.12 6C1.12 3.3 3.32 1.1 6.02 1.1C8.72 1.1 10.92 3.3 10.92 6C10.92 8.7 8.72 10.9 6.02 10.9C3.32 10.9 1.12 8.68 1.12 6Z" fill="#828282"/>
</svg>
